{
  "accessors": [
    {
      "bufferView": 2,
      "componentType": 5126,
      "count": 6719,
      "max": [
        0.5449138879776001,
        0.2790280878543854,
        1.9876394271850586
      ],
      "min": [
        -0.5449138283729553,
        -0.18184693157672882,
        1.1536539793014526
      ],
      "type": "VEC3"
    },
    {
      "bufferView": 2,
      "byteOffset": 80628,
      "componentType": 5126,
      "count": 6719,
      "max": [
        0.9995546340942383,
        0.9971573948860168,
        0.9993908405303955
      ],
      "min": [
        -0.9995546340942383,
        -0.9999796152114868,
        -0.9965818524360657
      ],
      "type": "VEC3"
    },
    {
      "bufferView": 3,
      "componentType": 5126,
      "count": 6719,
      "max": [
        1.0,
        0.501960813999176,
        0.501960813999176,
        0.501960813999176
      ],
      "min": [
        1.0,
        0.501960813999176,
        0.501960813999176,
        0.0
      ],
      "type": "VEC4"
    },
    {
      "bufferView": 1,
      "componentType": 5126,
      "count": 6719,
      "max": [
        0.9992032051086426,
        0.9977126717567444
      ],
      "min": [
        0.07437264174222946,
        0.0016930099809542298
      ],
      "type": "VEC2"
    },
    {
      "bufferView": 0,
      "componentType": 5125,
      "count": 18978,
      "type": "SCALAR"
    },
    {
      "bufferView": 2,
      "byteOffset": 161256,
      "componentType": 5126,
      "count": 14095,
      "max": [
        0.63379967212677,
        0.12697787582874298,
        2.0531423091888428
      ],
      "min": [
        -0.6337997913360596,
        -0.206235870718956,
        -0.034285999834537506
      ],
      "type": "VEC3"
    },
    {
      "bufferView": 2,
      "byteOffset": 330396,
      "componentType": 5126,
      "count": 14095,
      "max": [
        0.9999504089355469,
        0.9999884366989136,
        0.9999998807907104
      ],
      "min": [
        -0.9999507665634155,
        -0.9999977350234985,
        -0.9999998807907104
      ],
      "type": "VEC3"
    },
    {
      "bufferView": 3,
      "byteOffset": 107504,
      "componentType": 5126,
      "count": 14095,
      "max": [
        1.0,
        0.501960813999176,
        0.501960813999176,
        0.501960813999176
      ],
      "min": [
        1.0,
        0.49803921580314636,
        0.49803921580314636,
        0.0
      ],
      "type": "VEC4"
    },
    {
      "bufferView": 1,
      "byteOffset": 53752,
      "componentType": 5126,
      "count": 14095,
      "max": [
        0.9981902837753296,
        0.9990342259407043
      ],
      "min": [
        0.0016433000564575195,
        0.0010284780291840434
      ],
      "type": "VEC2"
    },
    {
      "bufferView": 0,
      "byteOffset": 75912,
      "componentType": 5125,
      "count": 42636,
      "type": "SCALAR"
    },
    {
      "bufferView": 2,
      "byteOffset": 499536,
      "componentType": 5126,
      "count": 732,
      "max": [
        0.31760698556900024,
        0.3246115744113922,
        1.2172569036483765
      ],
      "min": [
        -0.317607045173645,
        -0.19275487959384918,
        0.29676589369773865
      ],
      "type": "VEC3"
    },
    {
      "bufferView": 2,
      "byteOffset": 508320,
      "componentType": 5126,
      "count": 732,
      "max": [
        0.9851940870285034,
        0.9848307371139526,
        0.38957569003105164
      ],
      "min": [
        -0.9852071404457092,
        -0.9848307371139526,
        -0.3895793855190277
      ],
      "type": "VEC3"
    },
    {
      "bufferView": 3,
      "byteOffset": 333024,
      "componentType": 5126,
      "count": 732,
      "max": [
        1.0,
        0.20000000298023224,
        0.501960813999176,
        0.501960813999176
      ],
      "min": [
        1.0,
        0.20000000298023224,
        0.501960813999176,
        0.0
      ],
      "type": "VEC4"
    },
    {
      "bufferView": 1,
      "byteOffset": 166512,
      "componentType": 5126,
      "count": 732,
      "max": [
        0.9984483122825623,
        0.6361103057861328
      ],
      "min": [
        0.3388996124267578,
        0.0036603210028260946
      ],
      "type": "VEC2"
    },
    {
      "bufferView": 0,
      "byteOffset": 246456,
      "componentType": 5125,
      "count": 3408,
      "type": "SCALAR"
    },
    {
      "bufferView": 2,
      "byteOffset": 517104,
      "componentType": 5126,
      "count": 6719,
      "max": [
        0.5449138879776001,
        0.2790280878543854,
        1.9876394271850586
      ],
      "min": [
        -0.5449138283729553,
        -0.18184693157672882,
        1.1536539793014526
      ],
      "type": "VEC3"
    },
    {
      "bufferView": 2,
      "byteOffset": 597732,
      "componentType": 5126,
      "count": 6719,
      "max": [
        0.9995546340942383,
        0.9971573948860168,
        0.9993908405303955
      ],
      "min": [
        -0.9995546340942383,
        -0.9999796152114868,
        -0.9965818524360657
      ],
      "type": "VEC3"
    },
    {
      "bufferView": 3,
      "byteOffset": 344736,
      "componentType": 5126,
      "count": 6719,
      "max": [
        1.0,
        0.501960813999176,
        0.501960813999176,
        0.501960813999176
      ],
      "min": [
        1.0,
        0.501960813999176,
        0.501960813999176,
        0.0
      ],
      "type": "VEC4"
    },
    {
      "bufferView": 1,
      "byteOffset": 172368,
      "componentType": 5126,
      "count": 6719,
      "max": [
        0.9992032051086426,
        0.9977126717567444
      ],
      "min": [
        0.07437264174222946,
        0.0016930099809542298
      ],
      "type": "VEC2"
    },
    {
      "bufferView": 0,
      "byteOffset": 260088,
      "componentType": 5125,
      "count": 18978,
      "type": "SCALAR"
    },
    {
      "bufferView": 2,
      "byteOffset": 678360,
      "componentType": 5126,
      "count": 14095,
      "max": [
        0.63379967212677,
        0.12697787582874298,
        2.0531423091888428
      ],
      "min": [
        -0.6337997913360596,
        -0.206235870718956,
        -0.034285999834537506
      ],
      "type": "VEC3"
    },
    {
      "bufferView": 2,
      "byteOffset": 847500,
      "componentType": 5126,
      "count": 14095,
      "max": [
        0.9999504089355469,
        0.9999884366989136,
        0.9999998807907104
      ],
      "min": [
        -0.9999507665634155,
        -0.9999977350234985,
        -0.9999998807907104
      ],
      "type": "VEC3"
    },
    {
      "bufferView": 3,
      "byteOffset": 452240,
      "componentType": 5126,
      "count": 14095,
      "max": [
        1.0,
        0.501960813999176,
        0.501960813999176,
        0.501960813999176
      ],
      "min": [
        1.0,
        0.49803921580314636,
        0.49803921580314636,
        0.0
      ],
      "type": "VEC4"
    },
    {
      "bufferView": 1,
      "byteOffset": 226120,
      "componentType": 5126,
      "count": 14095,
      "max": [
        0.9981902837753296,
        0.9990342259407043
      ],
      "min": [
        0.0016433000564575195,
        0.0010284780291840434
      ],
      "type": "VEC2"
    },
    {
      "bufferView": 0,
      "byteOffset": 336000,
      "componentType": 5125,
      "count": 42636,
      "type": "SCALAR"
    },
    {
      "bufferView": 2,
      "byteOffset": 1016640,
      "componentType": 5126,
      "count": 732,
      "max": [
        0.31760698556900024,
        0.3246115744113922,
        1.2172569036483765
      ],
      "min": [
        -0.317607045173645,
        -0.19275487959384918,
        0.29676589369773865
      ],
      "type": "VEC3"
    },
    {
      "bufferView": 2,
      "byteOffset": 1025424,
      "componentType": 5126,
      "count": 732,
      "max": [
        0.9851940870285034,
        0.9848307371139526,
        0.38957569003105164
      ],
      "min": [
        -0.9852071404457092,
        -0.9848307371139526,
        -0.3895793855190277
      ],
      "type": "VEC3"
    },
    {
      "bufferView": 3,
      "byteOffset": 677760,
      "componentType": 5126,
      "count": 732,
      "max": [
        1.0,
        0.20000000298023224,
        0.501960813999176,
        0.501960813999176
      ],
      "min": [
        1.0,
        0.20000000298023224,
        0.501960813999176,
        0.0
      ],
      "type": "VEC4"
    },
    {
      "bufferView": 1,
      "byteOffset": 338880,
      "componentType": 5126,
      "count": 732,
      "max": [
        0.9984483122825623,
        0.6361103057861328
      ],
      "min": [
        0.3388996124267578,
        0.0036603210028260946
      ],
      "type": "VEC2"
    },
    {
      "bufferView": 0,
      "byteOffset": 506544,
      "componentType": 5125,
      "count": 3408,
      "type": "SCALAR"
    }
  ],
  "asset": {
    "extras": {
      "author": "Tigerar1 (https://sketchfab.com/allanromanreyes)",
      "license": "SKETCHFAB Standard (https://sketchfab.com/licenses)",
      "source": "https://sketchfab.com/3d-models/genshin-impact-il-capitano-67b72a4d1fd4486082c8c222eb556295",
      "title": "Genshin Impact Il Capitano"
    },
    "generator": "Sketchfab-16.59.0",
    "version": "2.0"
  },
  "bufferViews": [
    {
      "buffer": 0,
      "byteLength": 520176,
      "name": "floatBufferViews",
      "target": 34963
    },
    {
      "buffer": 0,
      "byteLength": 344736,
      "byteOffset": 520176,
      "byteStride": 8,
      "name": "floatBufferViews",
      "target": 34962
    },
    {
      "buffer": 0,
      "byteLength": 1034208,
      "byteOffset": 864912,
      "byteStride": 12,
      "name": "floatBufferViews",
      "target": 34962
    },
    {
      "buffer": 0,
      "byteLength": 689472,
      "byteOffset": 1899120,
      "byteStride": 16,
      "name": "floatBufferViews",
      "target": 34962
    }
  ],
  "buffers": [
    {
      "byteLength": 2588592,
      "uri": "scene.bin"
    }
  ],
  "images": [
    {
      "uri": "textures/Avatar_Male_Sword_IlCapitano_Mat_Hair_baseColor.png"
    },
    {
      "uri": "textures/Avatar_Male_Sword_IlCapitano_Mat_Body_baseColor.png"
    }
  ],
  "materials": [
    {
      "doubleSided": true,
      "name": "Avatar_Male_Sword_IlCapitano_Mat_Hair",
      "pbrMetallicRoughness": {
        "baseColorTexture": {
          "index": 0
        },
        "metallicFactor": 0.0,
        "roughnessFactor": 0.6
      }
    },
    {
      "doubleSided": true,
      "name": "Avatar_Male_Sword_IlCapitano_Mat_Body",
      "pbrMetallicRoughness": {
        "baseColorTexture": {
          "index": 1
        },
        "metallicFactor": 0.0,
        "roughnessFactor": 0.6
      }
    },
    {
      "doubleSided": true,
      "name": "Avatar_Male_Sword_IlCapitano_Mat_Dress",
      "pbrMetallicRoughness": {
        "baseColorTexture": {
          "index": 1
        },
        "metallicFactor": 0.0,
        "roughnessFactor": 0.6
      }
    }
  ],
  "meshes": [
    {
      "name": "Object_0",
      "primitives": [
        {
          "attributes": {
            "COLOR_0": 2,
            "NORMAL": 1,
            "POSITION": 0,
            "TEXCOORD_0": 3
          },
          "indices": 4,
          "material": 0,
          "mode": 4
        }
      ]
    },
    {
      "name": "Object_1",
      "primitives": [
        {
          "attributes": {
            "COLOR_0": 7,
            "NORMAL": 6,
            "POSITION": 5,
            "TEXCOORD_0": 8
          },
          "indices": 9,
          "material": 1,
          "mode": 4
        }
      ]
    },
    {
      "name": "Object_2",
      "primitives": [
        {
          "attributes": {
            "COLOR_0": 12,
            "NORMAL": 11,
            "POSITION": 10,
            "TEXCOORD_0": 13
          },
          "indices": 14,
          "material": 2,
          "mode": 4
        }
      ]
    },
    {
      "name": "Object_3",
      "primitives": [
        {
          "attributes": {
            "COLOR_0": 17,
            "NORMAL": 16,
            "POSITION": 15,
            "TEXCOORD_0": 18
          },
          "indices": 19,
          "material": 0,
          "mode": 4
        }
      ]
    },
    {
      "name": "Object_4",
      "primitives": [
        {
          "attributes": {
            "COLOR_0": 22,
            "NORMAL": 21,
            "POSITION": 20,
            "TEXCOORD_0": 23
          },
          "indices": 24,
          "material": 1,
          "mode": 4
        }
      ]
    },
    {
      "name": "Object_5",
      "primitives": [
        {
          "attributes": {
            "COLOR_0": 27,
            "NORMAL": 26,
            "POSITION": 25,
            "TEXCOORD_0": 28
          },
          "indices": 29,
          "material": 2,
          "mode": 4
        }
      ]
    }
  ],
  "nodes": [
    {
      "children": [
        1
      ],
      "matrix": [
        1.0,
        0.0,
        0.0,
        0.0,
        0.0,
        2.220446049250313e-16,
        -1.0,
        0.0,
        0.0,
        1.0,
        2.220446049250313e-16,
        0.0,
        0.0,
        0.0,
        0.0,
        1.0
      ],
      "name": "Sketchfab_model"
    },
    {
      "children": [
        2
      ],
      "name": "Collada visual scene group"
    },
    {
      "children": [
        3
      ],
      "name": "NPC_Avatar_Male_Sword_IlCapitano"
    },
    {
      "children": [
        4,
        5,
        6,
        7,
        8,
        9
      ],
      "name": "Object_3"
    },
    {
      "mesh": 0,
      "name": "Object_4"
    },
    {
      "mesh": 1,
      "name": "Object_5"
    },
    {
      "mesh": 2,
      "name": "Object_6"
    },
    {
      "mesh": 3,
      "name": "Object_7"
    },
    {
      "mesh": 4,
      "name": "Object_8"
    },
    {
      "mesh": 5,
      "name": "Object_9"
    }
  ],
  "samplers": [
    {
      "magFilter": 9729,
      "minFilter": 9987,
      "wrapS": 10497,
      "wrapT": 10497
    }
  ],
  "scene": 0,
  "scenes": [
    {
      "name": "Sketchfab_Scene",
      "nodes": [
        0
      ]
    }
  ],
  "textures": [
    {
      "sampler": 0,
      "source": 0
    },
    {
      "sampler": 0,
      "source": 1
    }
  ]
}
